<svg width="11" height="18" viewBox="0 0 11 18" fill="none" xmlns="http://www.w3.org/2000/svg">
<path d="M10.8447 2.31115C10.6995 2.08725 10.4873 2.08082 10.2456 2.07349C10.2182 2.07266 10.1904 2.07182 10.1623 2.07065C10.1409 2.06966 10.1173 2.07004 10.0926 2.07044C9.99457 2.07202 9.87987 2.07388 9.82209 1.99094C9.75511 1.89478 9.76146 1.70895 9.76671 1.55554C9.76836 1.50706 9.76991 1.46179 9.769 1.42365C9.75958 1.06728 9.73995 0.68872 9.6033 0.562169C9.50026 0.46722 9.192 0.480373 8.90772 0.492505C8.81556 0.496437 8.72592 0.500262 8.6466 0.500262H2.59546C2.47362 0.500262 2.34591 0.490275 2.22043 0.480461C1.97592 0.461339 1.73987 0.442879 1.57224 0.500262C1.32897 0.583949 1.3125 1.0237 1.29699 1.4378L1.29615 1.46008C1.28313 1.80193 1.19898 2.06572 0.920084 2.03915C0.595708 2.00874 0.272935 1.99915 0.126275 2.29471C-0.0469344 2.64441 -0.0112119 3.01047 0.0527726 3.66613C0.0619125 3.75979 0.071629 3.85935 0.0813956 3.96563H10.9383C10.9445 3.88795 10.9511 3.81127 10.9576 3.73583C11.0084 3.14593 11.0527 2.63197 10.8447 2.31115Z" fill="#8047F8"/>
<path fill-rule="evenodd" clip-rule="evenodd" d="M0.926896 4.61591C1.09646 6.92632 1.26417 9.23936 1.43189 11.5525L1.43199 11.5539C1.52305 12.8098 1.61412 14.0657 1.70548 15.3213H2.05189C2.0755 15.5178 2.10251 15.7604 2.13099 16.0162C2.18879 16.5355 2.25266 17.1092 2.30635 17.4617H2.34466C2.69752 17.3317 5.13684 16.282 5.13793 12.1029C5.13749 12.091 5.13788 12.0791 5.13911 12.0672H4.53646C4.50728 12.067 4.479 12.0571 4.45597 12.0393C4.43294 12.0215 4.41643 11.9966 4.40898 11.9686C4.35026 11.8225 4.3029 11.6722 4.26735 11.5189C3.91282 11.7205 3.63127 12.0283 3.46285 12.3985C3.30298 12.0194 3.28205 11.5964 3.40373 11.2034C3.52541 10.8105 3.78196 10.4726 4.12855 10.2488C4.13301 9.02937 4.58653 7.85384 5.40327 6.94475L5.41602 6.93347C5.43975 6.91281 5.47015 6.90131 5.50167 6.90106C5.51989 6.90121 5.5379 6.90513 5.55453 6.91257C5.57136 6.9201 5.58642 6.93106 5.59873 6.94475C6.42501 7.85507 6.87613 9.04191 6.86212 10.2686C7.21518 10.4861 7.47695 10.8238 7.59885 11.2188C7.72075 11.6139 7.6945 12.0395 7.52498 12.4168C7.35747 12.046 7.0757 11.738 6.72049 11.5372C6.69879 11.6858 6.65883 11.8311 6.60151 11.97C6.58168 12.0292 6.54202 12.0672 6.50237 12.0672H5.85967C5.86069 12.0743 5.8614 12.0814 5.86182 12.0886L5.86206 12.0902V12.0937C5.86229 12.0998 5.8623 12.106 5.86208 12.1122C5.87088 16.4112 8.46441 17.387 8.68303 17.4617H8.7578C8.7769 17.1231 8.83904 16.6558 8.89962 16.2003C8.94137 15.8864 8.98238 15.5781 9.00805 15.3213H9.35847C9.47063 13.7398 9.58599 12.1627 9.70135 10.5857L9.70141 10.5848L9.70145 10.5843C9.84901 8.56709 9.99657 6.54977 10.1375 4.52305H0.949336C0.922889 4.52826 0.924693 4.57181 0.926896 4.61591ZM5.50167 6.90106L5.501 6.90105H5.50241L5.50167 6.90106Z" fill="#8047F8"/>
</svg>
